<svg xmlns="http://www.w3.org/2000/svg" xmlns:xlink="http://www.w3.org/1999/xlink" width="256" height="256" viewBox="0 0 256 256"><defs><clipPath id="b"><rect width="256" height="256"/></clipPath></defs><g id="a" clip-path="url(#b)"><rect width="256" height="256" fill="rgba(255,255,255,0)"/><g transform="translate(47 47)"><path d="M0,141.111A20.888,20.888,0,0,0,20.889,162H141.111A20.888,20.888,0,0,0,162,141.111V20.889A20.888,20.888,0,0,0,141.111,0H20.889A20.888,20.888,0,0,0,0,20.889V141.111Z" fill="#563d7c"/><path d="M93.643,90.2V67.26h20.194a31.41,31.41,0,0,1,5.564.481,13.886,13.886,0,0,1,4.74,1.717,9.157,9.157,0,0,1,3.3,3.434,11.405,11.405,0,0,1,1.237,5.632q0,6.182-3.71,8.93a15.5,15.5,0,0,1-9.479,2.748ZM72.075,50.5v98.086h47.532a50.148,50.148,0,0,0,12.845-1.648,34.353,34.353,0,0,0,11.127-5.083,25.036,25.036,0,0,0,7.761-8.861,26.99,26.99,0,0,0,2.885-12.845,27.179,27.179,0,0,0-4.464-15.729q-4.465-6.526-13.532-9.136a24.447,24.447,0,0,0,9.96-8.105,21.487,21.487,0,0,0,3.365-12.364,26.31,26.31,0,0,0-2.267-11.539,18.851,18.851,0,0,0-6.388-7.487,27.571,27.571,0,0,0-9.891-4.053A61.063,61.063,0,0,0,118.233,50.5Zm21.568,81.326V104.9h23.491q7.006,0,11.265,3.229t4.259,10.784a13.481,13.481,0,0,1-1.305,6.319,10.366,10.366,0,0,1-3.5,3.915,14.835,14.835,0,0,1-5.083,2.061,28.84,28.84,0,0,1-6.045.618Z" transform="translate(-26.465 -18.543)" fill="#fff"/></g></g></svg>