<svg xmlns="http://www.w3.org/2000/svg" xmlns:xlink="http://www.w3.org/1999/xlink" width="256" height="256" viewBox="0 0 256 256">
  <defs>
    <clipPath id="clip-canvas">
      <rect width="256" height="256"/>
    </clipPath>
  </defs>
  <g id="canvas" clip-path="url(#clip-canvas)">
    <rect width="256" height="256" fill="rgba(255,255,255,0)"/>
    <g id="canvas-2" data-name="canvas" transform="translate(57.962 41.743)">
      <path id="Path_14" data-name="Path 14" d="M13.352,22.668A10.986,10.986,0,0,0,23.63,16.8l-5.993-3.385c-.9,1.615-2.049,2.733-4.1,2.733-2.391,0-4.068-1.987-4.068-4.813v-.062c0-2.608,1.615-4.751,4.068-4.751A4.22,4.22,0,0,1,17.482,9.16l5.993-3.509A10.658,10.658,0,0,0,13.632,0,11.233,11.233,0,0,0,2.08,11.334V11.4A11.075,11.075,0,0,0,13.352,22.668ZM23.07,22.2h7.763l1.118-2.919h7.608L40.707,22.2h7.887L39.434.311h-7.2Zm10.713-8.074L35.77,8.85l1.987,5.279ZM49.489,22.2h7.2V12.173L64.767,22.2h6.459V.466h-7.2v9.6L56.29.466h-6.8Zm31.465.155h6.956L96.728.466H88.717l-4.223,12.2L80.271.466H72.135ZM92.937,22.2H100.7l1.118-2.919h7.608l1.149,2.919h7.887L109.3.311h-7.2Zm10.713-8.074,1.987-5.279,1.987,5.279Zm24.75,8.477c5.838,0,9.6-2.795,9.6-7.359v-.062c0-4.378-3.726-5.993-9.285-7.018-2.3-.435-2.888-.807-2.888-1.4V6.707c0-.528.5-.9,1.584-.9a11.4,11.4,0,0,1,6.521,2.143l3.54-4.906c-2.515-1.987-5.62-2.981-9.813-2.981-5.993,0-9.223,3.2-9.223,7.328v.062c0,4.6,4.285,5.993,9.16,6.987,2.329.466,3.012.807,3.012,1.428v.062c0,.59-.559.932-1.863.932a12.457,12.457,0,0,1-7.608-2.546l-3.882,4.627C120.016,21.364,123.991,22.606,128.4,22.606Z" fill="#4c566a"/>
      <path id="Path_15" data-name="Path 15" d="M23.544,173.923,12.425,49.121H134.667L123.548,173.856l-50.1,13.882" transform="translate(-3.207 -15.225)" fill="#434c5e"/>
      <path id="Path_16" data-name="Path 16" d="M101,181.725V63.965h49.968l-9.535,106.473" transform="translate(-30.66 -19.826)" fill="#4c566a"/>
      <path id="Path_17" data-name="Path 17" d="M52.246,163.631,45,86H83.643v15.181H61.561l4.83,51.064,17.251,4.485v16.216Z" transform="translate(-13.303 -26.655)" fill="#eceff4"/>
      <path id="Path_18" data-name="Path 18" d="M139.3,86H101v15.181h21.392l-1.38,15.871h15.181Z" transform="translate(-30.66 -26.655)" fill="#fff"/>
      <path id="Path_19" data-name="Path 19" d="M101,197.742l29.672-8.281L133.432,166H119.286l-1.035,10.351L101,181.526Z" transform="translate(-30.66 -51.451)" fill="#fff"/>
    </g>
  </g>
</svg>
