<svg xmlns="http://www.w3.org/2000/svg" xmlns:xlink="http://www.w3.org/1999/xlink" width="256" height="256" viewBox="0 0 256 256">
  <defs>
    <clipPath id="clip-javascript">
      <rect width="256" height="256"/>
    </clipPath>
  </defs>
  <g id="javascript" clip-path="url(#clip-javascript)">
    <rect width="256" height="256" fill="rgba(255,255,255,0)"/>
    <g id="javascript-2" data-name="javascript" transform="translate(39.355 39.355)">
      <path id="Path_12" data-name="Path 12" d="M0,0H177.289V177.289H0Z" fill="#f7df1e"/>
      <path id="Path_13" data-name="Path 13" d="M67.312,183.869l13.567-8.211c2.618,4.641,5,8.567,10.71,8.567,5.475,0,8.927-2.141,8.927-10.471V117.106h16.66V173.99c0,17.256-10.115,25.111-24.873,25.111-13.328,0-21.064-6.9-24.992-15.233m58.914-1.784,13.565-7.854c3.571,5.832,8.213,10.116,16.424,10.116,6.9,0,11.306-3.452,11.306-8.212,0-5.712-4.522-7.736-12.139-11.067l-4.164-1.787c-12.02-5.116-19.994-11.543-19.994-25.109,0-12.5,9.52-22.017,24.4-22.017,10.592,0,18.208,3.69,23.682,13.329l-12.973,8.331c-2.857-5.117-5.95-7.14-10.71-7.14-4.88,0-7.974,3.094-7.974,7.14,0,5,3.094,7.022,10.234,10.117l4.165,1.785c14.162,6.07,22.136,12.258,22.136,26.181,0,15-11.781,23.207-27.609,23.207-15.471,0-25.467-7.378-30.346-17.018" transform="translate(-20.696 -35.713)"/>
    </g>
  </g>
</svg>
