<svg xmlns="http://www.w3.org/2000/svg" xmlns:xlink="http://www.w3.org/1999/xlink" width="256" height="256" viewBox="0 0 256 256"><defs><clipPath id="b"><rect width="256" height="256"/></clipPath></defs><g id="a" clip-path="url(#b)"><rect width="256" height="256" fill="rgba(255,255,255,0)"/><g transform="translate(-14.942 9.551)"><path d="M-18.458,6.58h322.8V230.319h-322.8Z" transform="translate(0 0)" fill="none"/><path d="M62.261,134.878H53.522q-.464-22.126-2.552-41.613h-.078L37.587,134.878H30.934L17.708,93.264h-.076q-1.472,18.714-1.856,41.613H7.81q.77-27.846,3.865-52.214H22.507L35.113,121.03h.078L47.875,82.664H58.239q3.4,28.543,4.023,52.214m37.9-38.523q-5.337,28.963-14.079,42.1-6.809,10.112-14.928,10.115a14.674,14.674,0,0,1-5.336-1.3V142.61a25.7,25.7,0,0,0,3.634.233,8.784,8.784,0,0,0,6.113-2.091,7.627,7.627,0,0,0,2.781-5.721q0-2.173-2.165-8.9l-9.59-29.782h8.585l6.883,22.274q2.32,7.587,1.934,10.6a145.5,145.5,0,0,0,7.891-32.876h8.276v0Z" transform="translate(18.091 52.401)" fill="#5d87a1"/><path d="M176.584,135.194H151.76V82.981h8.351v45.786h16.473Zm-31.322,1.261-9.6-4.737a17.84,17.84,0,0,0,2.4-2.332q6.12-7.189,6.115-21.268,0-25.911-20.341-25.915-9.975,0-15.548,6.578-6.115,7.194-6.111,21.2,0,13.767,5.412,20.182,4.952,5.8,14.933,5.806a24.06,24.06,0,0,0,6.836-.917l12.5,7.275Zm-31.094-11.71Q111,119.645,111,108.354q0-19.72,11.99-19.728,6.269,0,9.2,4.715,3.166,5.109,3.173,16.244,0,19.882-11.988,19.883-6.272,0-9.205-4.722m-15.631-4.024a13.852,13.852,0,0,1-4.87,10.906q-4.874,4.25-13.066,4.254A26.165,26.165,0,0,1,65.75,131l2.244-4.484a25.4,25.4,0,0,0,11.21,3.092,11.774,11.774,0,0,0,7.388-2.081,7.092,7.092,0,0,0,2.844-5.8c0-3.1-2.163-5.753-6.132-7.974-3.659-2.01-10.978-6.211-10.978-6.211-3.967-2.891-5.953-5.995-5.953-11.108a12.971,12.971,0,0,1,4.445-10.247q4.451-3.914,11.488-3.909a23.819,23.819,0,0,1,13.221,3.869l-2.013,4.485a25.563,25.563,0,0,0-10.05-2.163,8.953,8.953,0,0,0-6.181,1.935,6.469,6.469,0,0,0-2.342,4.953c0,3.087,2.209,5.772,6.285,8.037,3.708,2.013,11.21,6.287,11.21,6.287,4.068,2.886,6.1,5.961,6.1,11.034" transform="translate(57.996 52.084)" fill="#f8981d"/><path d="M172.433,101.029c-5.049-.128-8.959.38-12.24,1.768-.947.378-2.454.378-2.585,1.576.512.507.571,1.324,1.015,2.023a14.659,14.659,0,0,0,3.28,3.844c1.322,1.013,2.65,2.016,4.041,2.9,2.454,1.518,5.235,2.4,7.626,3.914,1.393.88,2.778,2.018,4.173,2.965.686.5,1.125,1.324,2.015,1.64v-.193c-.446-.567-.572-1.388-1.01-2.02l-1.895-1.827a30.025,30.025,0,0,0-6.559-6.368c-2.02-1.392-6.437-3.283-7.256-5.61l-.128-.128a25.133,25.133,0,0,0,4.354-1.02c2.146-.566,4.1-.437,6.306-1,1.013-.253,2.018-.571,3.035-.883v-.569c-1.142-1.136-1.956-2.646-3.156-3.72a84,84,0,0,0-10.409-7.76c-1.959-1.265-4.478-2.079-6.564-3.155-.751-.38-2.018-.567-2.46-1.2a25.7,25.7,0,0,1-2.589-4.858c-1.824-3.467-3.6-7.314-5.169-10.98-1.138-2.459-1.831-4.914-3.219-7.189-6.5-10.723-13.562-17.218-24.414-23.593-2.332-1.327-5.107-1.893-8.07-2.589l-4.733-.25c-1.01-.442-2.021-1.643-2.9-2.211-3.6-2.27-12.87-7.189-15.518-.694-1.706,4.105,2.523,8.141,3.975,10.224A29,29,0,0,1,94.585,48.8c.444,1.072.569,2.211,1.013,3.344a75.565,75.565,0,0,0,3.281,8.455,30.107,30.107,0,0,0,2.332,3.9c.507.7,1.388,1.008,1.581,2.148-.88,1.256-.949,3.153-1.454,4.73-2.27,7.128-1.383,15.958,1.834,21.2,1.006,1.577,3.408,5.049,6.62,3.719,2.844-1.135,2.214-4.73,3.031-7.883.187-.762.064-1.261.442-1.761v.123c.88,1.765,1.768,3.465,2.584,5.235a35.971,35.971,0,0,0,8.2,8.447c1.511,1.142,2.709,3.094,4.6,3.791v-.189h-.125a7.067,7.067,0,0,0-1.447-1.258,30.633,30.633,0,0,1-3.281-3.784,81.256,81.256,0,0,1-7.062-11.485c-1.017-1.959-1.893-4.1-2.712-6.056-.382-.755-.382-1.893-1.015-2.273-.949,1.386-2.332,2.587-3.024,4.286-1.2,2.717-1.326,6.059-1.771,9.535l-.248.122c-2.01-.5-2.709-2.584-3.472-4.348-1.89-4.482-2.207-11.676-.567-16.847.439-1.322,2.339-5.487,1.581-6.746-.38-1.207-1.643-1.895-2.336-2.846a25.643,25.643,0,0,1-2.273-4.036c-1.513-3.531-2.275-7.444-3.9-10.973a33.984,33.984,0,0,0-3.155-4.862c-1.2-1.7-2.525-2.9-3.475-4.919-.314-.694-.755-1.829-.25-2.584A1,1,0,0,1,91,34.157c.817-.691,3.153.187,3.972.567a31.963,31.963,0,0,1,6.247,3.153c.883.633,1.831,1.832,2.964,2.148h1.327c2.015.439,4.286.122,6.182.692a40.612,40.612,0,0,1,9.085,4.35,55.976,55.976,0,0,1,19.677,21.578c.755,1.449,1.076,2.776,1.765,4.288,1.329,3.094,2.972,6.248,4.291,9.276a41.568,41.568,0,0,0,4.482,8.452c.944,1.324,4.737,2.018,6.437,2.712a44.5,44.5,0,0,1,4.352,1.763c2.146,1.322,4.284,2.84,6.3,4.294,1,.757,4.163,2.334,4.35,3.6m-64.35-54.823a9.828,9.828,0,0,0-2.582.317v.127h.122a20.584,20.584,0,0,0,2.021,2.587c.508,1.012.949,2.015,1.447,3.024l.122-.125a3.545,3.545,0,0,0,1.332-3.155,14.424,14.424,0,0,1-.762-1.324c-.372-.632-1.191-.946-1.7-1.452" transform="translate(72.63 16.547)" fill="#5d87a1"/><path d="M146.211,116.188h1.307v-6.4h-1.961l-1.6,4.365-1.738-4.365h-1.888v6.4h1.234v-4.867h.069l1.82,4.867h.941l1.814-4.867v4.867Zm-10.529,0h1.383v-5.313h1.81v-1.086H133.8v1.086h1.883l0,5.313Z" transform="translate(104.86 71.082)" fill="#f8981d"/></g></g></svg>