<svg xmlns="http://www.w3.org/2000/svg" xmlns:xlink="http://www.w3.org/1999/xlink" width="256" height="256" viewBox="0 0 256 256">
  <defs>
    <clipPath id="clip-next">
      <rect width="256" height="256"/>
    </clipPath>
  </defs>
  <g id="next" clip-path="url(#clip-next)">
    <rect width="256" height="256" fill="rgba(255,255,255,0)"/>
    <g id="next-2" data-name="next" transform="translate(5.819 98.647)">
      <path id="Path_20" data-name="Path 20" d="M214.7,0h50.647V9.39H245.231V58.632H235.176V9.39H214.7ZM131.147,0V9.39H90.481V24.473h32.754v9.316H90.481V49.316h40.665v9.316H80.5V0h50.647Zm25.36,0H143.346l47.172,58.706h13.235l-23.66-29.353L203.753.074H190.518L173.513,21.22,156.507.074Zm13.53,41.922-6.654-8.133L143.346,58.706h13.161Z" transform="translate(-20.981)"/>
      <path id="Path_21" data-name="Path 21" d="M59.889,58.632,12.569,0H0V58.632H10.055V12.569L47.172,58.632Z"/>
    </g>
  </g>
</svg>
