<svg xmlns="http://www.w3.org/2000/svg" xmlns:xlink="http://www.w3.org/1999/xlink" width="256" height="256" viewBox="0 0 256 256"><defs><clipPath id="b"><rect width="256" height="256"/></clipPath></defs><g id="a" clip-path="url(#b)"><rect width="256" height="256" fill="rgba(255,255,255,0)"/><g transform="translate(0 61.37)"><ellipse cx="128" cy="66.63" rx="128" ry="66.63" transform="translate(0 0)" fill="#8993be"/><path d="M35.945,106.082,49.973,35.068H82.41c14.027.877,21.041,7.89,21.041,20.165,0,21.041-16.657,33.315-31.562,32.438H56.11L52.6,106.082ZM59.616,74.521,64,48.219H75.4c6.137,0,10.52,2.63,10.52,7.89-.876,14.9-7.89,17.535-15.78,18.412H59.617Zm40.576,13.15,14.027-71.013h16.658l-3.507,18.41h15.78c14.028.877,19.288,7.89,17.535,16.658l-6.137,35.945H137.014l6.137-32.438c.876-4.384.876-7.014-5.26-7.014H124.74l-7.89,39.452Zm53.233,18.411,14.027-71.014H199.89c14.028.877,21.042,7.89,21.042,20.165,0,21.041-16.658,33.315-31.562,32.438H173.589l-3.507,18.411ZM177.1,74.521l4.384-26.3h11.4c6.137,0,10.52,2.63,10.52,7.89-.876,14.9-7.89,17.535-15.78,18.412H177.1Z" fill="#232531" fill-rule="evenodd"/></g></g></svg>