<svg xmlns="http://www.w3.org/2000/svg" xmlns:xlink="http://www.w3.org/1999/xlink" width="256" height="256" viewBox="0 0 256 256">
  <defs>
    <clipPath id="clip-react">
      <rect width="256" height="256"/>
    </clipPath>
  </defs>
  <g id="react" clip-path="url(#clip-react)">
    <rect width="256" height="256" fill="rgba(255,255,255,0)"/>
    <g id="react-2" data-name="react" transform="translate(-152.331 -43.178)">
      <path id="Path_22" data-name="Path 22" d="M384.962,171.2c0-13.863-17.36-27-43.977-35.147,6.142-27.128,3.412-48.711-8.616-55.621a18.7,18.7,0,0,0-9.555-2.389v9.512a9.877,9.877,0,0,1,4.863,1.109c5.8,3.327,8.318,16,6.355,32.289-.469,4.01-1.237,8.232-2.175,12.54a206.713,206.713,0,0,0-27.086-4.649,208.069,208.069,0,0,0-17.744-21.327c13.905-12.924,26.957-20,35.83-20V78h0c-11.73,0-27.086,8.36-42.612,22.863-15.526-14.417-30.882-22.692-42.612-22.692v9.512c8.829,0,21.924,7.038,35.83,19.877a201.461,201.461,0,0,0-17.616,21.285,199.185,199.185,0,0,0-27.128,4.692c-.981-4.265-1.706-8.4-2.218-12.37-2-16.294.469-28.962,6.228-32.332a9.493,9.493,0,0,1,4.905-1.109V78.213h0a19.019,19.019,0,0,0-9.64,2.389c-11.986,6.91-14.673,28.45-8.488,55.493-26.531,8.19-43.806,21.285-43.806,35.1,0,13.863,17.36,27,43.977,35.147-6.142,27.128-3.412,48.711,8.616,55.621a18.75,18.75,0,0,0,9.6,2.389c11.73,0,27.086-8.36,42.612-22.863,15.526,14.417,30.882,22.692,42.612,22.692a19.019,19.019,0,0,0,9.64-2.389c11.986-6.91,14.673-28.45,8.488-55.493C367.687,198.157,384.962,185.02,384.962,171.2Zm-55.536-28.45c-1.578,5.5-3.54,11.175-5.758,16.848-1.749-3.412-3.583-6.825-5.588-10.237-1.962-3.412-4.052-6.739-6.142-9.981C317.995,140.275,323.839,141.384,329.426,142.749Zm-19.536,45.427c-3.327,5.758-6.739,11.218-10.28,16.294-6.355.554-12.8.853-19.28.853-6.441,0-12.882-.3-19.194-.81q-5.31-7.614-10.322-16.209-4.863-8.382-8.872-16.976c2.645-5.716,5.63-11.431,8.829-17.019,3.327-5.758,6.739-11.218,10.28-16.294,6.355-.555,12.8-.853,19.28-.853,6.441,0,12.882.3,19.194.81q5.31,7.614,10.322,16.209,4.863,8.382,8.872,16.976C316.033,176.873,313.09,182.588,309.891,188.176Zm13.777-5.545c2.3,5.716,4.265,11.431,5.886,16.976-5.588,1.365-11.474,2.517-17.574,3.412,2.09-3.284,4.18-6.654,6.142-10.109C320.085,189.5,321.919,186.043,323.668,182.631Zm-43.251,45.512a175.844,175.844,0,0,1-11.858-13.649c3.839.171,7.763.3,11.73.3,4.01,0,7.976-.085,11.858-.3A166.5,166.5,0,0,1,280.416,228.143ZM248.682,203.02c-6.057-.9-11.9-2-17.488-3.37,1.578-5.5,3.54-11.175,5.758-16.848,1.749,3.412,3.583,6.825,5.588,10.237S246.592,199.778,248.682,203.02ZM280.2,114.256a175.848,175.848,0,0,1,11.858,13.649c-3.839-.171-7.763-.3-11.73-.3-4.009,0-7.976.085-11.858.3A166.494,166.494,0,0,1,280.2,114.256ZM248.639,139.38c-2.09,3.284-4.18,6.654-6.142,10.109-1.962,3.412-3.8,6.825-5.545,10.237-2.3-5.716-4.265-11.431-5.886-16.976C236.653,141.427,242.539,140.275,248.639,139.38Zm-38.6,53.4c-15.1-6.441-24.867-14.886-24.867-21.583s9.768-15.185,24.867-21.583c3.668-1.578,7.678-2.986,11.815-4.308a204.857,204.857,0,0,0,9.6,25.976,201.974,201.974,0,0,0-9.469,25.849C217.757,195.811,213.748,194.361,210.037,192.783Zm22.948,60.953c-5.8-3.327-8.318-16-6.355-32.289.469-4.01,1.237-8.232,2.175-12.54a206.712,206.712,0,0,0,27.085,4.649,208.064,208.064,0,0,0,17.744,21.327c-13.905,12.924-26.958,20-35.83,20A10.18,10.18,0,0,1,232.985,253.736Zm101.176-32.5c2,16.294-.469,28.962-6.228,32.332a9.493,9.493,0,0,1-4.905,1.109c-8.829,0-21.924-7.038-35.83-19.877a201.461,201.461,0,0,0,17.616-21.285,199.187,199.187,0,0,0,27.128-4.692A119.428,119.428,0,0,1,334.161,221.233Zm16.422-28.45c-3.668,1.578-7.678,2.986-11.815,4.308a204.862,204.862,0,0,0-9.6-25.976,201.974,201.974,0,0,0,9.469-25.849c4.223,1.322,8.232,2.773,11.986,4.351,15.1,6.441,24.867,14.886,24.867,21.583C375.45,177.9,365.682,186.385,350.583,192.783Z" transform="translate(0)" fill="#61dafb"/>
      <path id="Path_23" data-name="Path 23" d="M320.8,78.4Z" transform="translate(-83.209 -0.229)" fill="#61dafb"/>
      <circle id="Ellipse_2" data-name="Ellipse 2" cx="19.493" cy="19.493" r="19.493" transform="translate(260.795 151.707)" fill="#61dafb"/>
      <path id="Path_24" data-name="Path 24" d="M520.5,78.1Z" transform="translate(-197.728 -0.057)" fill="#61dafb"/>
    </g>
  </g>
</svg>
