<svg xmlns="http://www.w3.org/2000/svg" xmlns:xlink="http://www.w3.org/1999/xlink" width="256" height="256" viewBox="0 0 256 256">
  <defs>
    <clipPath id="clip-woo">
      <rect width="256" height="256"/>
    </clipPath>
  </defs>
  <g id="woo" clip-path="url(#clip-woo)">
    <rect width="256" height="256" fill="rgba(255,255,255,0)"/>
    <g id="woo-2" data-name="woo" transform="translate(19.433 76.162)">
      <path id="Path_10" data-name="Path 10" d="M196.38,0H20.1A20.1,20.1,0,0,0,0,20.187V87.476a20.178,20.178,0,0,0,20.187,20.187H103.68l38.161,21.249-8.677-21.249H196.38a20.178,20.178,0,0,0,20.187-20.187V20.187A20.178,20.178,0,0,0,196.38,0Zm-180,15.583A7.126,7.126,0,0,0,10.8,18.327,7.907,7.907,0,0,0,9.387,24.26Q17.222,74.063,24,91.46c1.771,4.25,3.807,6.286,6.2,6.109,3.719-.266,8.145-5.4,13.369-15.406q4.117-8.5,12.75-25.5,7.171,25.1,19.567,37.718c2.3,2.39,4.693,3.453,6.994,3.276a5.705,5.705,0,0,0,4.693-3.188,10.507,10.507,0,0,0,1.063-5.843c-.531-8.057.266-19.3,2.479-33.733,2.3-14.874,5.135-25.588,8.588-31.962a7.686,7.686,0,0,0,.885-4.25,6.935,6.935,0,0,0-2.745-5.047,7.693,7.693,0,0,0-5.578-1.771,6.8,6.8,0,0,0-5.843,3.9q-8.234,15.007-11.687,48.7a165.353,165.353,0,0,1-8.412-30.28c-.974-5.224-3.364-7.7-7.26-7.437q-3.984.265-6.64,5.312L33.027,68.972q-4.781-19.257-8.942-47.014Q23.155,15.052,16.381,15.583ZM187,21.958a20.392,20.392,0,0,1,14.167,10.27c2.833,4.781,4.249,10.536,4.249,17.442A47.433,47.433,0,0,1,198.5,74.727c-5.312,8.854-12.217,13.281-20.806,13.281a23.254,23.254,0,0,1-4.781-.531,20.391,20.391,0,0,1-14.167-10.27Q154.5,69.9,154.5,59.675a46.915,46.915,0,0,1,6.907-24.968c5.4-8.854,12.306-13.281,20.806-13.281A23.236,23.236,0,0,1,187,21.958Zm-3.719,47.9c3.277-2.922,5.489-7.26,6.729-13.1a38.229,38.229,0,0,0,.619-6.552,22.467,22.467,0,0,0-1.593-8.057c-1.329-3.453-3.1-5.312-5.225-5.755-3.187-.62-6.286,1.151-9.207,5.489a28.613,28.613,0,0,0-4.693,10.536,30.753,30.753,0,0,0-.621,6.463,22.466,22.466,0,0,0,1.593,8.057c1.329,3.453,3.1,5.312,5.225,5.755C178.318,73.133,180.709,72.159,183.276,69.857ZM145.648,32.228a20.576,20.576,0,0,0-14.167-10.27,23.245,23.245,0,0,0-4.781-.531c-8.5,0-15.405,4.427-20.806,13.281a46.911,46.911,0,0,0-6.906,24.968q0,10.227,4.25,17.531A20.389,20.389,0,0,0,117.4,87.476a23.242,23.242,0,0,0,4.781.531c8.588,0,15.494-4.427,20.806-13.281A47.433,47.433,0,0,0,149.9,49.67C149.9,42.764,148.48,37.009,145.648,32.228ZM134.491,56.753c-1.239,5.843-3.453,10.182-6.728,13.1-2.567,2.3-4.958,3.276-7.172,2.833-2.125-.443-3.9-2.3-5.224-5.755a22.47,22.47,0,0,1-1.594-8.057,30.777,30.777,0,0,1,.62-6.463,28.624,28.624,0,0,1,4.692-10.536c2.922-4.338,6.021-6.109,9.208-5.489,2.125.443,3.9,2.3,5.225,5.755a22.467,22.467,0,0,1,1.593,8.057A31.023,31.023,0,0,1,134.491,56.753Z" fill="#7f54b3" fill-rule="evenodd"/>
    </g>
  </g>
</svg>
