<svg xmlns="http://www.w3.org/2000/svg" xmlns:xlink="http://www.w3.org/1999/xlink" width="256" height="256" viewBox="0 0 256 256">
  <defs>
    <clipPath id="clip-wp">
      <rect width="256" height="256"/>
    </clipPath>
  </defs>
  <g id="wp" clip-path="url(#clip-wp)">
    <rect width="256" height="256" fill="rgba(255,255,255,0)"/>
    <g id="wp-2" data-name="wp" transform="translate(37.002 37)">
      <path id="Path_9" data-name="Path 9" d="M91,0A91,91,0,1,0,182,91,91.1,91.1,0,0,0,91,0ZM9.184,91A81.478,81.478,0,0,1,16.268,57.7L55.3,164.632A81.837,81.837,0,0,1,9.184,91ZM91,172.819a81.777,81.777,0,0,1-23.113-3.334L92.436,98.154l25.154,68.9a6.881,6.881,0,0,0,.582,1.127A81.7,81.7,0,0,1,91,172.819ZM102.276,52.637c4.924-.259,9.367-.779,9.367-.779,4.406-.522,3.89-7-.524-6.74,0,0-13.251,1.038-21.808,1.038-8.037,0-21.551-1.038-21.551-1.038-4.41-.259-4.924,6.481-.516,6.74,0,0,4.176.52,8.58.779L88.569,87.564l-17.9,53.7L40.875,52.639c4.932-.257,9.365-.779,9.365-.779,4.406-.52,3.886-7-.526-6.736,0,0-13.245,1.038-21.8,1.038-1.537,0-3.347-.04-5.265-.1a81.795,81.795,0,0,1,123.606-15.4c-.354-.019-.7-.066-1.063-.066-8.033,0-13.737,7-13.737,14.522,0,6.74,3.886,12.447,8.033,19.187,3.115,5.45,6.746,12.453,6.746,22.565,0,7-2.689,15.129-6.227,26.449l-8.16,27.272ZM132.133,161.72l24.991-72.255c4.673-11.67,6.222-21,6.222-29.306a62.194,62.194,0,0,0-.552-8.414,81.826,81.826,0,0,1-30.66,109.975Z" transform="translate(0)"/>
    </g>
  </g>
</svg>
